PathFileType	4	(X/Y/Z)	\\Move.snu.ac.kr\motion\Animal\091204_091205_Bird\091205_bird\Project 2\Capture day 2\Session 1\pigeon_011.trc
DataRate	CameraRate	NumFrames	NumMarkers	Units	OrigDataRate	OrigDataStartFrame	OrigNumFrames
240.0	240.0	8	14	mm	240.0	232	1439
Frame#	Time	14MarkersBird:Head			14MarkersBird:C_back			14MarkersBird:Spine			14MarkersBird:L-shoulder			14MarkersBird:L-elbow			14MarkersBird:L-wrist			14MarkersBird:L-hand			14MarkersBird:R-shoulder			14MarkersBird:R-elbow			14MarkersBird:R-Wrist			14MarkersBird:R-hand			14MarkersBird:C_Tail			14MarkersBird:L-Tale			14MarkersBird:R-Tale			
		X1	Y1	Z1	X2	Y2	Z2	X3	Y3	Z3	X4	Y4	Z4	X5	Y5	Z5	X6	Y6	Z6	X7	Y7	Z7	X8	Y8	Z8	X9	Y9	Z9	X10	Y10	Z10	X11	Y11	Z11	X12	Y12	Z12	X13	Y13	Z13	X14	Y14	Z14	

849	3.533	238.62735	255.89088	1277.36499	214.03152	259.37714	1220.84045	182.21329	251.49060	1175.83826	242.61319	249.70064	1236.77441	248.82376	242.15620	1200.80151	278.80109	235.95403	1232.87451	282.74445	208.94322	1240.34424	208.04745	256.86288	1260.05493	177.45320	266.47189	1249.03992	191.74016	259.55020	1287.95361	182.30302	225.91896	1307.15991	120.14941	173.52078	1100.19250	217.54053	174.73096	1106.76758	71.71152	216.96950	1189.16382	
850	3.537	249.53633	250.87206	1295.50342	224.60266	253.66463	1239.87244	193.22290	247.16025	1194.24097	252.80106	244.25459	1255.28711	256.52621	242.65770	1217.49585	290.54956	238.88800	1245.07019	295.09448	210.60693	1245.94836	219.08501	251.83334	1277.82971	190.06952	266.19876	1262.20044	200.02548	265.24490	1303.06018	184.45032	232.58951	1319.41089	130.30153	169.40700	1118.41699	226.20735	169.34558	1124.37732	82.56285	212.44513	1206.41418	
851	3.542	260.37543	245.75218	1313.65686	235.17746	247.90189	1258.85010	204.25436	242.60548	1212.66492	262.98599	238.71988	1273.85632	263.52054	243.12410	1235.35828	301.25107	242.19009	1257.66394	305.90918	214.25357	1250.35083	230.21617	246.63068	1295.42590	204.38905	265.10556	1275.41370	209.17046	270.51407	1317.15149	186.10228	241.39392	1329.87097	140.57303	164.92081	1136.68286	236.36928	165.41849	1141.49146	93.16347	209.96863	1223.74512	
852	3.546	271.12250	240.49147	1331.76013	245.84906	242.22350	1277.59180	215.20476	237.66888	1230.97314	273.27240	233.10660	1292.31970	270.15308	242.93410	1254.27612	310.71890	245.30467	1271.41028	314.92065	220.27299	1255.59766	241.45357	241.36967	1312.80444	219.87584	262.79755	1289.20691	219.69157	274.45190	1330.42725	189.12300	252.29126	1338.24219	151.00742	160.31908	1154.65259	248.38350	163.04312	1158.27576	103.56458	209.36447	1241.26917	
853	3.550	281.77148	235.09077	1349.76624	256.66089	236.62436	1295.99902	225.98982	232.27737	1249.08350	283.73886	227.38742	1310.51331	277.01328	241.60950	1273.91479	319.36520	247.42113	1286.53345	322.82971	228.30852	1263.37573	252.70695	236.06303	1330.06482	235.62878	258.98682	1304.03540	231.34401	276.50439	1343.53198	195.34814	264.72665	1344.90942	161.64996	155.92717	1171.95313	262.09970	161.92833	1175.11584	113.94394	210.05751	1259.10901	
854	3.554	292.31860	229.57445	1367.66492	267.53741	231.02098	1314.10571	236.58710	226.50127	1267.01599	294.39093	221.54810	1328.39709	284.84033	238.93762	1293.89063	328.15308	247.94554	1302.48364	330.70694	237.33046	1274.37756	263.76642	230.61771	1347.38721	250.80592	253.84340	1320.07678	243.24643	276.72766	1357.19897	205.84840	277.35907	1351.23181	172.59851	152.05460	1188.25098	276.86826	161.48430	1192.36755	124.47587	211.08829	1277.37476	
855	3.558	302.76630	223.96201	1385.47388	278.35522	225.40585	1331.85352	246.96753	220.43481	1284.87048	305.14420	215.61218	1346.04602	294.27292	235.03680	1313.80286	338.06134	246.71835	1318.31775	339.53094	245.86674	1288.43347	274.43387	224.99455	1364.95959	264.79486	248.09427	1337.29285	254.38890	275.56628	1371.98022	220.05235	288.54132	1359.40479	183.96939	148.91194	1203.39526	291.80496	160.95267	1210.18506	135.15958	211.25050	1296.12671	
856	3.563	313.12363	218.25351	1403.20032	289.05005	219.89766	1349.18616	257.09378	214.17119	1302.61865	315.88287	209.64027	1363.53870	305.55435	230.24692	1333.21204	349.43793	243.73085	1333.39343	350.23914	252.14336	1304.76453	284.60352	219.23154	1382.83130	277.20496	242.59544	1355.67322	264.07880	273.34033	1388.10352	235.59885	296.87579	1371.68225	195.82117	146.57370	1217.51367	306.13876	159.57721	1228.48560	145.80186	209.51611	1315.25488	
